{
  "accessors": [
    {
      "bufferView": 2,
      "componentType": 5126,
      "count": 858,
      "max": [
        0.995274007320404,
        0.9952750205993652,
        0.9973919987678528
      ],
      "min": [
        -0.995274007320404,
        -0.995274007320404,
        -0.9973919987678528
      ],
      "type": "VEC3"
    },
    {
      "bufferView": 2,
      "byteOffset": 10296,
      "componentType": 5126,
      "count": 858,
      "max": [
        1.0,
        1.0,
        1.0
      ],
      "min": [
        -1.0,
        -1.0,
        -1.0
      ],
      "type": "VEC3"
    },
    {
      "bufferView": 3,
      "componentType": 5126,
      "count": 858,
      "max": [
        0.7641293406486511,
        0.08600234240293503,
        0.9985156059265137,
        1.0
      ],
      "min": [
        -0.8562663197517395,
        -0.9988110661506653,
        -0.9956379532814026,
        1.0
      ],
      "type": "VEC4"
    },
    {
      "bufferView": 1,
      "componentType": 5126,
      "count": 858,
      "max": [
        0.8679659962654114,
        0.6547840237617493
      ],
      "min": [
        0.0005629999795928597,
        0.0007220000261440873
      ],
      "type": "VEC2"
    },
    {
      "bufferView": 0,
      "componentType": 5125,
      "count": 3408,
      "type": "SCALAR"
    },
    {
      "bufferView": 2,
      "byteOffset": 20592,
      "componentType": 5126,
      "count": 3654,
      "max": [
        0.9996770024299622,
        0.999675989151001,
        1.0
      ],
      "min": [
        -0.9996770024299622,
        -0.999675989151001,
        -1.0
      ],
      "type": "VEC3"
    },
    {
      "bufferView": 2,
      "byteOffset": 64440,
      "componentType": 5126,
      "count": 3654,
      "max": [
        0.9997238516807556,
        0.9997238516807556,
        0.9990565776824951
      ],
      "min": [
        -0.9997238516807556,
        -0.9997238516807556,
        -0.9990565776824951
      ],
      "type": "VEC3"
    },
    {
      "bufferView": 3,
      "byteOffset": 13728,
      "componentType": 5126,
      "count": 3654,
      "max": [
        0.9971112012863159,
        0.9997352361679077,
        0.9982949495315552,
        1.0
      ],
      "min": [
        -0.9971112012863159,
        -0.9999858736991882,
        -0.9948789477348328,
        1.0
      ],
      "type": "VEC4"
    },
    {
      "bufferView": 1,
      "byteOffset": 6864,
      "componentType": 5126,
      "count": 3654,
      "max": [
        0.9997109770774841,
        0.900147020816803
      ],
      "min": [
        0.0002280000044265762,
        0.0002280000044265762
      ],
      "type": "VEC2"
    },
    {
      "bufferView": 0,
      "byteOffset": 13632,
      "componentType": 5125,
      "count": 16704,
      "type": "SCALAR"
    }
  ],
  "asset": {
    "extras": {
      "author": "ikagogava (https://sketchfab.com/ikagogava)",
      "license": "CC-BY-4.0 (http://creativecommons.org/licenses/by/4.0/)",
      "source": "https://sketchfab.com/3d-models/basketball-bb2896720a1e4aefba3ab381d4b4554e",
      "title": "Basketball"
    },
    "generator": "Sketchfab-12.68.0",
    "version": "2.0"
  },
  "bufferViews": [
    {
      "buffer": 0,
      "byteLength": 80448,
      "name": "floatBufferViews",
      "target": 34963
    },
    {
      "buffer": 0,
      "byteLength": 36096,
      "byteOffset": 80448,
      "byteStride": 8,
      "name": "floatBufferViews",
      "target": 34962
    },
    {
      "buffer": 0,
      "byteLength": 108288,
      "byteOffset": 116544,
      "byteStride": 12,
      "name": "floatBufferViews",
      "target": 34962
    },
    {
      "buffer": 0,
      "byteLength": 72192,
      "byteOffset": 224832,
      "byteStride": 16,
      "name": "floatBufferViews",
      "target": 34962
    }
  ],
  "buffers": [
    {
      "byteLength": 297024,
      "uri": "scene.bin"
    }
  ],
  "images": [
    {
      "uri": "textures/Seams_baseColor.jpeg"
    },
    {
      "uri": "textures/Seams_metallicRoughness.png"
    },
    {
      "uri": "textures/Seams_normal.png"
    },
    {
      "uri": "textures/Basketball_baseColor.jpeg"
    },
    {
      "uri": "textures/Basketball_metallicRoughness.png"
    },
    {
      "uri": "textures/Basketball_normal.png"
    }
  ],
  "materials": [
    {
      "doubleSided": true,
      "name": "Seams",
      "normalTexture": {
        "index": 2
      },
      "occlusionTexture": {
        "index": 1
      },
      "pbrMetallicRoughness": {
        "baseColorTexture": {
          "index": 0
        },
        "metallicRoughnessTexture": {
          "index": 1
        }
      }
    },
    {
      "doubleSided": true,
      "name": "Basketball",
      "normalTexture": {
        "index": 5
      },
      "occlusionTexture": {
        "index": 4
      },
      "pbrMetallicRoughness": {
        "baseColorTexture": {
          "index": 3
        },
        "metallicRoughnessTexture": {
          "index": 4
        }
      }
    }
  ],
  "meshes": [
    {
      "name": "defaultMaterial",
      "primitives": [
        {
          "attributes": {
            "NORMAL": 1,
            "POSITION": 0,
            "TANGENT": 2,
            "TEXCOORD_0": 3
          },
          "indices": 4,
          "material": 0,
          "mode": 4
        }
      ]
    },
    {
      "name": "defaultMaterial",
      "primitives": [
        {
          "attributes": {
            "NORMAL": 6,
            "POSITION": 5,
            "TANGENT": 7,
            "TEXCOORD_0": 8
          },
          "indices": 9,
          "material": 1,
          "mode": 4
        }
      ]
    }
  ],
  "nodes": [
    {
      "children": [
        1
      ],
      "matrix": [
        1.0,
        0.0,
        0.0,
        0.0,
        0.0,
        2.220446049250313e-16,
        -1.0,
        0.0,
        0.0,
        1.0,
        2.220446049250313e-16,
        0.0,
        0.0,
        0.0,
        0.0,
        1.0
      ],
      "name": "Sketchfab_model"
    },
    {
      "children": [
        2
      ],
      "matrix": [
        1.0,
        0.0,
        0.0,
        0.0,
        0.0,
        -4.371139006309477e-08,
        0.999999999999999,
        0.0,
        0.0,
        -0.999999999999999,
        -4.371139006309477e-08,
        0.0,
        0.0,
        0.0,
        0.0,
        1.0
      ],
      "name": "Collada visual scene group"
    },
    {
      "children": [
        3,
        4
      ],
      "name": "Cube_Cube.001"
    },
    {
      "mesh": 0,
      "name": "defaultMaterial"
    },
    {
      "mesh": 1,
      "name": "defaultMaterial"
    }
  ],
  "samplers": [
    {
      "magFilter": 9729,
      "minFilter": 9987,
      "wrapS": 10497,
      "wrapT": 10497
    }
  ],
  "scene": 0,
  "scenes": [
    {
      "name": "Sketchfab_Scene",
      "nodes": [
        0
      ]
    }
  ],
  "textures": [
    {
      "sampler": 0,
      "source": 0
    },
    {
      "sampler": 0,
      "source": 1
    },
    {
      "sampler": 0,
      "source": 2
    },
    {
      "sampler": 0,
      "source": 3
    },
    {
      "sampler": 0,
      "source": 4
    },
    {
      "sampler": 0,
      "source": 5
    }
  ]
}
