{
  "accessors": [
    {
      "bufferView": 2,
      "componentType": 5126,
      "count": 24487,
      "max": [
        757.3090209960938,
        634.716064453125,
        0.0
      ],
      "min": [
        -757.3075561523438,
        -634.716064453125,
        -678.1339111328125
      ],
      "type": "VEC3"
    },
    {
      "bufferView": 2,
      "byteOffset": 293844,
      "componentType": 5126,
      "count": 24487,
      "max": [
        0.9999683499336243,
        0.9999678134918213,
        1.0
      ],
      "min": [
        -0.9999678730964661,
        -0.9999678134918213,
        -1.0
      ],
      "type": "VEC3"
    },
    {
      "bufferView": 1,
      "componentType": 5126,
      "count": 24487,
      "max": [
        0.9720829725265503,
        0.9900000095367432
      ],
      "min": [
        0.009999999776482582,
        0.009999999776482582
      ],
      "type": "VEC2"
    },
    {
      "bufferView": 0,
      "componentType": 5125,
      "count": 141408,
      "type": "SCALAR"
    },
    {
      "bufferView": 2,
      "byteOffset": 587688,
      "componentType": 5126,
      "count": 1393,
      "max": [
        371.4690856933594,
        499.177490234375,
        -605.9678955078125
      ],
      "min": [
        -626.8854370117188,
        -499.1769714355469,
        -634.2349853515625
      ],
      "type": "VEC3"
    },
    {
      "bufferView": 2,
      "byteOffset": 604404,
      "componentType": 5126,
      "count": 1393,
      "max": [
        0.8449889421463013,
        0.844989001750946,
        0.5347865223884583
      ],
      "min": [
        -0.8449894189834595,
        -0.8449895977973938,
        -1.0
      ],
      "type": "VEC3"
    },
    {
      "bufferView": 1,
      "byteOffset": 195896,
      "componentType": 5126,
      "count": 1393,
      "max": [
        0.9980469942092896,
        0.9980469942092896
      ],
      "min": [
        0.0019529999699443579,
        0.0019529999699443579
      ],
      "type": "VEC2"
    },
    {
      "bufferView": 0,
      "byteOffset": 565632,
      "componentType": 5125,
      "count": 7488,
      "type": "SCALAR"
    },
    {
      "bufferView": 2,
      "byteOffset": 621120,
      "componentType": 5126,
      "count": 25688,
      "max": [
        764.8818359375,
        642.2759399414063,
        7.599536418914795
      ],
      "min": [
        -764.867431640625,
        -642.2759399414063,
        -685.7334594726563
      ],
      "type": "VEC3"
    },
    {
      "bufferView": 2,
      "byteOffset": 929376,
      "componentType": 5126,
      "count": 25688,
      "max": [
        0.9999881386756897,
        0.9998878836631775,
        1.0
      ],
      "min": [
        -0.9998891353607178,
        -0.9998879432678223,
        -1.0
      ],
      "type": "VEC3"
    },
    {
      "bufferView": 1,
      "byteOffset": 207040,
      "componentType": 5126,
      "count": 25688,
      "max": [
        0.9980469942092896,
        0.9980469942092896
      ],
      "min": [
        0.0019529999699443579,
        0.0019529999699443579
      ],
      "type": "VEC2"
    },
    {
      "bufferView": 0,
      "byteOffset": 595584,
      "componentType": 5125,
      "count": 148320,
      "type": "SCALAR"
    }
  ],
  "asset": {
    "extras": {
      "author": "Kyyy_24 (https://sketchfab.com/luckyardrianto27)",
      "license": "CC-BY-4.0 (http://creativecommons.org/licenses/by/4.0/)",
      "source": "https://sketchfab.com/3d-models/coffee-52a1742975724558a8465e6f0e17f966",
      "title": "Coffee"
    },
    "generator": "Sketchfab-14.60.0",
    "version": "2.0"
  },
  "bufferViews": [
    {
      "buffer": 0,
      "byteLength": 1188864,
      "name": "floatBufferViews",
      "target": 34963
    },
    {
      "buffer": 0,
      "byteLength": 412544,
      "byteOffset": 1188864,
      "byteStride": 8,
      "name": "floatBufferViews",
      "target": 34962
    },
    {
      "buffer": 0,
      "byteLength": 1237632,
      "byteOffset": 1601408,
      "byteStride": 12,
      "name": "floatBufferViews",
      "target": 34962
    }
  ],
  "buffers": [
    {
      "byteLength": 2839040,
      "uri": "scene.bin"
    }
  ],
  "extensionsUsed": [
    "KHR_materials_unlit"
  ],
  "images": [
    {
      "uri": "textures/material_baseColor.png"
    },
    {
      "uri": "textures/Latte_baseColor.png"
    },
    {
      "uri": "textures/Outline_baseColor.png"
    }
  ],
  "materials": [
    {
      "doubleSided": true,
      "extensions": {
        "KHR_materials_unlit": {}
      },
      "name": "material",
      "pbrMetallicRoughness": {
        "baseColorTexture": {
          "index": 0
        },
        "metallicFactor": 0.0
      }
    },
    {
      "doubleSided": true,
      "extensions": {
        "KHR_materials_unlit": {}
      },
      "name": "Latte",
      "pbrMetallicRoughness": {
        "baseColorTexture": {
          "index": 1
        },
        "metallicFactor": 0.0
      }
    },
    {
      "extensions": {
        "KHR_materials_unlit": {}
      },
      "name": "Outline",
      "pbrMetallicRoughness": {
        "baseColorTexture": {
          "index": 2
        },
        "metallicFactor": 0.0
      }
    }
  ],
  "meshes": [
    {
      "name": "mugwithsaucer03_cup_0",
      "primitives": [
        {
          "attributes": {
            "NORMAL": 1,
            "POSITION": 0,
            "TEXCOORD_0": 2
          },
          "indices": 3,
          "material": 0,
          "mode": 4
        }
      ]
    },
    {
      "name": "mugwithsaucer03_Latte_0",
      "primitives": [
        {
          "attributes": {
            "NORMAL": 5,
            "POSITION": 4,
            "TEXCOORD_0": 6
          },
          "indices": 7,
          "material": 1,
          "mode": 4
        }
      ]
    },
    {
      "name": "mugwithsaucer03_Outline_0",
      "primitives": [
        {
          "attributes": {
            "NORMAL": 9,
            "POSITION": 8,
            "TEXCOORD_0": 10
          },
          "indices": 11,
          "material": 2,
          "mode": 4
        }
      ]
    }
  ],
  "nodes": [
    {
      "children": [
        1
      ],
      "matrix": [
        1.0,
        0.0,
        0.0,
        0.0,
        0.0,
        2.220446049250313e-16,
        -1.0,
        0.0,
        0.0,
        1.0,
        2.220446049250313e-16,
        0.0,
        0.0,
        0.0,
        0.0,
        1.0
      ],
      "name": "Sketchfab_model"
    },
    {
      "children": [
        2
      ],
      "matrix": [
        0.009999999776482582,
        0.0,
        0.0,
        0.0,
        0.0,
        0.0,
        0.009999999776482582,
        0.0,
        0.0,
        -0.009999999776482582,
        0.0,
        0.0,
        0.0,
        0.0,
        0.0,
        1.0
      ],
      "name": "b741af297fdb422ab7416e00f3b7611d.fbx"
    },
    {
      "children": [
        3
      ],
      "name": "RootNode"
    },
    {
      "children": [
        4,
        5,
        6
      ],
      "matrix": [
        1.0,
        0.0,
        0.0,
        0.0,
        0.0,
        -1.6292067939183141e-07,
        0.9999999999999868,
        0.0,
        0.0,
        -0.9999999999999868,
        -1.6292067939183141e-07,
        0.0,
        0.0,
        0.0,
        0.0,
        1.0
      ],
      "name": "mugwithsaucer03"
    },
    {
      "mesh": 0,
      "name": "mugwithsaucer03_cup_0"
    },
    {
      "mesh": 1,
      "name": "mugwithsaucer03_Latte_0"
    },
    {
      "mesh": 2,
      "name": "mugwithsaucer03_Outline_0"
    }
  ],
  "samplers": [
    {
      "magFilter": 9729,
      "minFilter": 9987,
      "wrapS": 10497,
      "wrapT": 10497
    }
  ],
  "scene": 0,
  "scenes": [
    {
      "name": "Sketchfab_Scene",
      "nodes": [
        0
      ]
    }
  ],
  "textures": [
    {
      "sampler": 0,
      "source": 0
    },
    {
      "sampler": 0,
      "source": 1
    },
    {
      "sampler": 0,
      "source": 2
    }
  ]
}
