<svg xmlns="http://www.w3.org/2000/svg" version="1.1" xmlns:xlink="http://www.w3.org/1999/xlink" xmlns:svgjs="http://svgjs.dev/svgjs" width="2000" height="1293" viewBox="0 0 2000 1293"><g transform="matrix(1,0,0,1,0.1817061903296917,0.5234817813765176)"><svg viewBox="0 0 382 247" data-background-color="#ffffff" preserveAspectRatio="xMidYMid meet" height="1293" width="2000" xmlns="http://www.w3.org/2000/svg" xmlns:xlink="http://www.w3.org/1999/xlink"><g id="tight-bounds" transform="matrix(1,0,0,1,-0.034705882352966455,-0.09999999999999432)"><svg viewBox="0 0 382.06941176470593 247.2" height="247.2" width="382.06941176470593"><g><svg viewBox="0 0 382.06941176470593 247.2" height="247.2" width="382.06941176470593"><g><svg viewBox="0 0 382.06941176470593 247.2" height="247.2" width="382.06941176470593"><g id="textblocktransform"><svg viewBox="0 0 382.06941176470593 247.2" height="247.2" width="382.06941176470593" id="textblock"><g><svg viewBox="0 0 382.06941176470593 247.2" height="247.2" width="382.06941176470593"><g transform="matrix(1,0,0,1,0,0)"><svg width="382.06941176470593" viewBox="0.1 -33.95 52.55 34" height="247.2" data-palette-color="#d48133"><path d="M0.1-33.85L25.25-33.85 24.2-27.8 16.4-27.8 16.4 0 8.15 0 8.15-27.8 0.1-27.8 0.1-33.85ZM28.45 0L28.45-33.85Q28.9-33.85 30.27-33.88 31.65-33.9 33.3-33.9 34.95-33.9 36.5-33.93 38.05-33.95 38.85-33.95L38.85-33.95Q45.2-33.95 48.42-31.58 51.65-29.2 51.65-25.15L51.65-25.15Q51.65-22.6 50.02-20.65 48.4-18.7 45.25-17.65L45.25-17.65Q49-16.55 50.82-14.45 52.65-12.35 52.65-9.45L52.65-9.45Q52.65 0.05 38.3 0.05L38.3 0.05Q37.6 0.05 36.17 0.05 34.75 0.05 33.2 0.03 31.65 0 30.32 0 29 0 28.45 0L28.45 0ZM36.7-14.4L36.7-5.4 39.15-5.4Q40.15-5.4 41.02-5.6 41.9-5.8 42.55-6.28 43.2-6.75 43.57-7.58 43.95-8.4 43.95-9.65L43.95-9.65Q43.95-10.6 43.7-11.48 43.45-12.35 42.85-13.03 42.25-13.7 41.27-14.1 40.3-14.5 38.9-14.5L38.9-14.5Q38.2-14.5 37.62-14.48 37.05-14.45 36.7-14.4L36.7-14.4ZM36.7-28.45L36.7-19.65 39-19.65Q40.55-19.65 41.77-20.6 43-21.55 43-24.05L43-24.05Q43-26.15 42.02-27.33 41.05-28.5 38.8-28.5L38.8-28.5Q38.15-28.5 37.57-28.5 37-28.5 36.7-28.45L36.7-28.45Z" opacity="1" transform="matrix(1,0,0,1,0,0)" fill="#d48133" class="undefined-text-0" data-fill-palette-color="primary" id="text-0"></path></svg></g></svg></g></svg></g></svg></g><g></g></svg></g><defs></defs></svg><rect width="382.06941176470593" height="247.2" fill="none" stroke="none" visibility="hidden"></rect></g></svg></g></svg>