{
  "accessors": [
    {
      "bufferView": 2,
      "componentType": 5126,
      "count": 3080,
      "max": [
        1.8029887676239014,
        6.002310752868652,
        0.034204065799713135
      ],
      "min": [
        -1.8029887676239014,
        -3.5264225006103516,
        -0.9095224142074585
      ],
      "type": "VEC3"
    },
    {
      "bufferView": 2,
      "byteOffset": 36960,
      "componentType": 5126,
      "count": 3080,
      "max": [
        0.9999794960021973,
        1.0,
        1.0
      ],
      "min": [
        -0.9999794960021973,
        -1.0,
        -1.0
      ],
      "type": "VEC3"
    },
    {
      "bufferView": 1,
      "componentType": 5126,
      "count": 3080,
      "max": [
        0.9990000128746033,
        0.9990000128746033
      ],
      "min": [
        0.0010000000474974513,
        0.0010000000474974513
      ],
      "type": "VEC2"
    },
    {
      "bufferView": 0,
      "componentType": 5125,
      "count": 5106,
      "type": "SCALAR"
    },
    {
      "bufferView": 2,
      "byteOffset": 73920,
      "componentType": 5126,
      "count": 1112,
      "max": [
        1.7878072261810303,
        0.9985516667366028,
        0.13974672555923462
      ],
      "min": [
        -1.7878072261810303,
        -3.511239767074585,
        -0.015221308916807175
      ],
      "type": "VEC3"
    },
    {
      "bufferView": 2,
      "byteOffset": 87264,
      "componentType": 5126,
      "count": 1112,
      "max": [
        1.0,
        1.0,
        1.0
      ],
      "min": [
        -1.0,
        -1.0,
        -1.0
      ],
      "type": "VEC3"
    },
    {
      "bufferView": 1,
      "byteOffset": 24640,
      "componentType": 5126,
      "count": 1112,
      "max": [
        0.9990000128746033,
        0.9990000128746033
      ],
      "min": [
        0.0010000000474974513,
        0.0010000000474974513
      ],
      "type": "VEC2"
    },
    {
      "bufferView": 0,
      "byteOffset": 20424,
      "componentType": 5125,
      "count": 1884,
      "type": "SCALAR"
    },
    {
      "bufferView": 2,
      "byteOffset": 100608,
      "componentType": 5126,
      "count": 2486,
      "max": [
        1.8029887676239014,
        6.002310752868652,
        0.0850125402212143
      ],
      "min": [
        -1.8029887676239014,
        -3.5501811504364014,
        -0.8943014740943909
      ],
      "type": "VEC3"
    },
    {
      "bufferView": 2,
      "byteOffset": 130440,
      "componentType": 5126,
      "count": 2486,
      "max": [
        1.0,
        1.0,
        1.0
      ],
      "min": [
        -1.0,
        -1.0,
        -1.0
      ],
      "type": "VEC3"
    },
    {
      "bufferView": 1,
      "byteOffset": 33536,
      "componentType": 5126,
      "count": 2486,
      "max": [
        0.9990000128746033,
        0.9990000128746033
      ],
      "min": [
        0.0010000000474974513,
        0.0010000000474974513
      ],
      "type": "VEC2"
    },
    {
      "bufferView": 0,
      "byteOffset": 27960,
      "componentType": 5125,
      "count": 3732,
      "type": "SCALAR"
    },
    {
      "bufferView": 2,
      "byteOffset": 160272,
      "componentType": 5126,
      "count": 260,
      "max": [
        1.7362408638000488,
        0.9471391439437866,
        1.2392934678473466e-08
      ],
      "min": [
        -1.7362408638000488,
        -3.459670066833496,
        -0.04924476519227028
      ],
      "type": "VEC3"
    },
    {
      "bufferView": 2,
      "byteOffset": 163392,
      "componentType": 5126,
      "count": 260,
      "max": [
        0.9953333139419556,
        0.9958049058914185,
        1.0
      ],
      "min": [
        -0.9961525201797485,
        -0.9958181381225586,
        -0.02363583818078041
      ],
      "type": "VEC3"
    },
    {
      "bufferView": 1,
      "byteOffset": 53424,
      "componentType": 5126,
      "count": 260,
      "max": [
        0.9272051453590393,
        0.922076940536499
      ],
      "min": [
        0.0010000000474974513,
        0.0010000000474974513
      ],
      "type": "VEC2"
    },
    {
      "bufferView": 0,
      "byteOffset": 42888,
      "componentType": 5125,
      "count": 576,
      "type": "SCALAR"
    },
    {
      "bufferView": 2,
      "byteOffset": 166512,
      "componentType": 5126,
      "count": 2560,
      "max": [
        0.3618439733982086,
        6.002310752868652,
        0.1305387169122696
      ],
      "min": [
        -0.4820472300052643,
        -3.622269868850708,
        -0.5313768982887268
      ],
      "type": "VEC3"
    },
    {
      "bufferView": 2,
      "byteOffset": 197232,
      "componentType": 5126,
      "count": 2560,
      "max": [
        1.0,
        1.0,
        1.0
      ],
      "min": [
        -1.0,
        -1.0,
        -1.0
      ],
      "type": "VEC3"
    },
    {
      "bufferView": 1,
      "byteOffset": 55504,
      "componentType": 5126,
      "count": 2560,
      "max": [
        0.9990000128746033,
        0.993871808052063
      ],
      "min": [
        0.06253845989704132,
        0.0010000000474974513
      ],
      "type": "VEC2"
    },
    {
      "bufferView": 0,
      "byteOffset": 45192,
      "componentType": 5125,
      "count": 3960,
      "type": "SCALAR"
    },
    {
      "bufferView": 2,
      "byteOffset": 227952,
      "componentType": 5126,
      "count": 1620,
      "max": [
        0.49198684096336365,
        5.810905456542969,
        0.08685088157653809
      ],
      "min": [
        -0.49198681116104126,
        4.794493675231934,
        -0.35983529686927795
      ],
      "type": "VEC3"
    },
    {
      "bufferView": 2,
      "byteOffset": 247392,
      "componentType": 5126,
      "count": 1620,
      "max": [
        1.0,
        0.9872453808784485,
        0.9998367428779602
      ],
      "min": [
        -1.0,
        -0.9872474074363708,
        -0.9998366832733154
      ],
      "type": "VEC3"
    },
    {
      "bufferView": 1,
      "byteOffset": 75984,
      "componentType": 5126,
      "count": 1620,
      "max": [
        0.9887436032295227,
        0.9887436032295227
      ],
      "min": [
        0.0010000000474974513,
        0.0010000000474974513
      ],
      "type": "VEC2"
    },
    {
      "bufferView": 0,
      "byteOffset": 61032,
      "componentType": 5125,
      "count": 2592,
      "type": "SCALAR"
    },
    {
      "bufferView": 2,
      "byteOffset": 266832,
      "componentType": 5126,
      "count": 192,
      "max": [
        0.20449119806289673,
        5.672031879425049,
        0.1305387169122696
      ],
      "min": [
        -0.2904180884361267,
        -1.886579155921936,
        -0.101556196808815
      ],
      "type": "VEC3"
    },
    {
      "bufferView": 2,
      "byteOffset": 269136,
      "componentType": 5126,
      "count": 192,
      "max": [
        0.7081699371337891,
        0.20220695436000824,
        0.7069973349571228
      ],
      "min": [
        -0.7081684470176697,
        -0.20226794481277466,
        -0.7069978713989258
      ],
      "type": "VEC3"
    },
    {
      "bufferView": 1,
      "byteOffset": 88944,
      "componentType": 5126,
      "count": 192,
      "max": [
        0.9631025791168213,
        0.9682307839393616
      ],
      "min": [
        0.0010000000474974513,
        0.0010000000474974513
      ],
      "type": "VEC2"
    },
    {
      "bufferView": 0,
      "byteOffset": 71400,
      "componentType": 5125,
      "count": 288,
      "type": "SCALAR"
    },
    {
      "bufferView": 2,
      "byteOffset": 271440,
      "componentType": 5126,
      "count": 382,
      "max": [
        1.050904393196106,
        0.00646209716796875,
        0.020943980664014816
      ],
      "min": [
        0.2505110502243042,
        -1.4741562604904175,
        -0.014500078745186329
      ],
      "type": "VEC3"
    },
    {
      "bufferView": 2,
      "byteOffset": 276024,
      "componentType": 5126,
      "count": 382,
      "max": [
        0.9991773962974548,
        0.9454997181892395,
        0.9999998211860657
      ],
      "min": [
        -0.9968904852867126,
        -0.9978420734405518,
        -0.9999998807907104
      ],
      "type": "VEC3"
    },
    {
      "bufferView": 1,
      "byteOffset": 90480,
      "componentType": 5126,
      "count": 382,
      "max": [
        0.993871808052063,
        0.9784871935844421
      ],
      "min": [
        0.16510257124900818,
        0.16510257124900818
      ],
      "type": "VEC2"
    },
    {
      "bufferView": 0,
      "byteOffset": 72552,
      "componentType": 5125,
      "count": 666,
      "type": "SCALAR"
    }
  ],
  "asset": {
    "extras": {
      "author": "Igor Bistritski (https://sketchfab.com/discodancer)",
      "license": "CC-BY-4.0 (http://creativecommons.org/licenses/by/4.0/)",
      "source": "https://sketchfab.com/3d-models/dd-acoustic-guitar-4eeb8f55c0de4521af948a343094baa4",
      "title": "DD Acoustic Guitar"
    },
    "generator": "Sketchfab-12.68.0",
    "version": "2.0"
  },
  "bufferViews": [
    {
      "buffer": 0,
      "byteLength": 75216,
      "name": "floatBufferViews",
      "target": 34963
    },
    {
      "buffer": 0,
      "byteLength": 93536,
      "byteOffset": 75216,
      "byteStride": 8,
      "name": "floatBufferViews",
      "target": 34962
    },
    {
      "buffer": 0,
      "byteLength": 280608,
      "byteOffset": 168752,
      "byteStride": 12,
      "name": "floatBufferViews",
      "target": 34962
    }
  ],
  "buffers": [
    {
      "byteLength": 449360,
      "uri": "scene.bin"
    }
  ],
  "materials": [
    {
      "doubleSided": true,
      "name": "dark_brown",
      "pbrMetallicRoughness": {
        "baseColorFactor": [
          0.0800118,
          0.0407012,
          0.0290405,
          1.0
        ],
        "metallicFactor": 0.0
      }
    },
    {
      "doubleSided": true,
      "name": "white",
      "pbrMetallicRoughness": {
        "baseColorFactor": [
          0.626664,
          0.608044,
          0.608044,
          1.0
        ],
        "metallicFactor": 0.0,
        "roughnessFactor": 0.9114772588
      }
    },
    {
      "doubleSided": true,
      "name": "black",
      "pbrMetallicRoughness": {
        "baseColorFactor": [
          0.0,
          0.0,
          0.0,
          1.0
        ],
        "metallicFactor": 0.0
      }
    },
    {
      "doubleSided": true,
      "name": "Material.001",
      "pbrMetallicRoughness": {
        "baseColorFactor": [
          0.698193,
          0.371955,
          0.103274,
          1.0
        ],
        "metallicFactor": 0.0,
        "roughnessFactor": 0.8982529953
      }
    },
    {
      "doubleSided": true,
      "name": "Material.003",
      "pbrMetallicRoughness": {
        "baseColorFactor": [
          0.581464,
          0.581464,
          0.581464,
          1.0
        ],
        "metallicFactor": 0.5671661528920344,
        "roughnessFactor": 0.20178726690136128
      }
    },
    {
      "doubleSided": true,
      "name": "towers",
      "pbrMetallicRoughness": {
        "roughnessFactor": 0.17746657424803458
      }
    },
    {
      "doubleSided": true,
      "name": "yellow_strung",
      "pbrMetallicRoughness": {
        "baseColorFactor": [
          0.626664,
          0.357375,
          0.142352,
          1.0
        ],
        "roughnessFactor": 0.6334795614979114
      }
    },
    {
      "doubleSided": true,
      "name": "black_glossy",
      "pbrMetallicRoughness": {
        "baseColorFactor": [
          0.00560472,
          0.00560472,
          0.00560472,
          1.0
        ],
        "metallicFactor": 0.0,
        "roughnessFactor": 0.9983278848
      }
    }
  ],
  "meshes": [
    {
      "name": "Plane_dark brown_0",
      "primitives": [
        {
          "attributes": {
            "NORMAL": 1,
            "POSITION": 0,
            "TEXCOORD_0": 2
          },
          "indices": 3,
          "material": 0,
          "mode": 4
        }
      ]
    },
    {
      "name": "Plane_white_0",
      "primitives": [
        {
          "attributes": {
            "NORMAL": 5,
            "POSITION": 4,
            "TEXCOORD_0": 6
          },
          "indices": 7,
          "material": 1,
          "mode": 4
        }
      ]
    },
    {
      "name": "Plane_black_0",
      "primitives": [
        {
          "attributes": {
            "NORMAL": 9,
            "POSITION": 8,
            "TEXCOORD_0": 10
          },
          "indices": 11,
          "material": 2,
          "mode": 4
        }
      ]
    },
    {
      "name": "Plane_Material.001_0",
      "primitives": [
        {
          "attributes": {
            "NORMAL": 13,
            "POSITION": 12,
            "TEXCOORD_0": 14
          },
          "indices": 15,
          "material": 3,
          "mode": 4
        }
      ]
    },
    {
      "name": "Plane_Material.003_0",
      "primitives": [
        {
          "attributes": {
            "NORMAL": 17,
            "POSITION": 16,
            "TEXCOORD_0": 18
          },
          "indices": 19,
          "material": 4,
          "mode": 4
        }
      ]
    },
    {
      "name": "Plane_towers_0",
      "primitives": [
        {
          "attributes": {
            "NORMAL": 21,
            "POSITION": 20,
            "TEXCOORD_0": 22
          },
          "indices": 23,
          "material": 5,
          "mode": 4
        }
      ]
    },
    {
      "name": "Plane_yellow strung_0",
      "primitives": [
        {
          "attributes": {
            "NORMAL": 25,
            "POSITION": 24,
            "TEXCOORD_0": 26
          },
          "indices": 27,
          "material": 6,
          "mode": 4
        }
      ]
    },
    {
      "name": "Plane_black_glossy_0",
      "primitives": [
        {
          "attributes": {
            "NORMAL": 29,
            "POSITION": 28,
            "TEXCOORD_0": 30
          },
          "indices": 31,
          "material": 7,
          "mode": 4
        }
      ]
    }
  ],
  "nodes": [
    {
      "children": [
        1
      ],
      "matrix": [
        1.0,
        0.0,
        0.0,
        0.0,
        0.0,
        2.220446049250313e-16,
        -1.0,
        0.0,
        0.0,
        1.0,
        2.220446049250313e-16,
        0.0,
        0.0,
        0.0,
        0.0,
        1.0
      ],
      "name": "Sketchfab_model"
    },
    {
      "children": [
        2
      ],
      "matrix": [
        1.0,
        0.0,
        0.0,
        0.0,
        0.0,
        0.0,
        1.0,
        0.0,
        0.0,
        -1.0,
        0.0,
        0.0,
        0.0,
        0.0,
        0.0,
        1.0
      ],
      "name": "4588fd3679e44725ba7ad22b33b2fbfd.fbx"
    },
    {
      "children": [
        3
      ],
      "name": "RootNode"
    },
    {
      "children": [
        4,
        5,
        6,
        7,
        8,
        9,
        10,
        11
      ],
      "matrix": [
        98.60214398945172,
        -16.64937329982412,
        0.6446467300265681,
        0.0,
        15.809150350331672,
        92.2641058088521,
        -35.17675395221544,
        0.0,
        5.261931940633515,
        34.78694940759063,
        93.60651805919218,
        0.0,
        -3.725290298461914e-07,
        345.93780517578125,
        -43.351078033447266,
        1.0
      ],
      "name": "Plane"
    },
    {
      "mesh": 0,
      "name": "Plane_dark brown_0"
    },
    {
      "mesh": 1,
      "name": "Plane_white_0"
    },
    {
      "mesh": 2,
      "name": "Plane_black_0"
    },
    {
      "mesh": 3,
      "name": "Plane_Material.001_0"
    },
    {
      "mesh": 4,
      "name": "Plane_Material.003_0"
    },
    {
      "mesh": 5,
      "name": "Plane_towers_0"
    },
    {
      "mesh": 6,
      "name": "Plane_yellow strung_0"
    },
    {
      "mesh": 7,
      "name": "Plane_black_glossy_0"
    }
  ],
  "scene": 0,
  "scenes": [
    {
      "name": "Sketchfab_Scene",
      "nodes": [
        0
      ]
    }
  ]
}
