{
  "accessors": [
    {
      "bufferView": 2,
      "componentType": 5126,
      "count": 65532,
      "max": [
        0.5794333815574646,
        0.09372995793819427,
        -0.5652895569801331
      ],
      "min": [
        -0.14745663106441498,
        -0.00019600859377533197,
        -1.3449279069900513
      ],
      "type": "VEC3"
    },
    {
      "bufferView": 2,
      "byteOffset": 786384,
      "componentType": 5126,
      "count": 65532,
      "max": [
        0.9994995594024658,
        0.9999994039535522,
        0.9970983862876892
      ],
      "min": [
        -0.9996729493141174,
        -0.9999979734420776,
        -0.9976593852043152
      ],
      "type": "VEC3"
    },
    {
      "bufferView": 1,
      "componentType": 5126,
      "count": 65532,
      "max": [
        0.359061598777771,
        0.9968869686126709
      ],
      "min": [
        0.00014611917140427977,
        0.5832792520523071
      ],
      "type": "VEC2"
    },
    {
      "bufferView": 0,
      "componentType": 5125,
      "count": 360135,
      "type": "SCALAR"
    },
    {
      "bufferView": 2,
      "byteOffset": 1572768,
      "componentType": 5126,
      "count": 65532,
      "max": [
        0.5360437035560608,
        0.04746556282043457,
        -0.5793086886405945
      ],
      "min": [
        -0.1446477770805359,
        -0.00019600859377533197,
        -1.2076866626739502
      ],
      "type": "VEC3"
    },
    {
      "bufferView": 2,
      "byteOffset": 2359152,
      "componentType": 5126,
      "count": 65532,
      "max": [
        0.9995052814483643,
        0.9999993443489075,
        0.9916707873344421
      ],
      "min": [
        -0.9999992847442627,
        -1.0,
        -0.99858558177948
      ],
      "type": "VEC3"
    },
    {
      "bufferView": 1,
      "byteOffset": 524256,
      "componentType": 5126,
      "count": 65532,
      "max": [
        0.3982656002044678,
        0.983620822429657
      ],
      "min": [
        0.0047174980863928795,
        0.3465912342071533
      ],
      "type": "VEC2"
    },
    {
      "bufferView": 0,
      "byteOffset": 1440540,
      "componentType": 5125,
      "count": 347913,
      "type": "SCALAR"
    },
    {
      "bufferView": 2,
      "byteOffset": 3145536,
      "componentType": 5126,
      "count": 65532,
      "max": [
        0.4715994894504547,
        0.14020569622516632,
        -0.7092256546020508
      ],
      "min": [
        -0.12776163220405579,
        -0.0038242172449827194,
        -1.4139745235443115
      ],
      "type": "VEC3"
    },
    {
      "bufferView": 2,
      "byteOffset": 3931920,
      "componentType": 5126,
      "count": 65532,
      "max": [
        0.9997963309288025,
        0.9999991059303284,
        0.9994865655899048
      ],
      "min": [
        -0.9999023675918579,
        -0.9999986290931702,
        -0.9870395064353943
      ],
      "type": "VEC3"
    },
    {
      "bufferView": 1,
      "byteOffset": 1048512,
      "componentType": 5126,
      "count": 65532,
      "max": [
        0.981377899646759,
        0.9918662309646606
      ],
      "min": [
        0.0009159172186627984,
        0.0010776196140795946
      ],
      "type": "VEC2"
    },
    {
      "bufferView": 0,
      "byteOffset": 2832192,
      "componentType": 5125,
      "count": 337551,
      "type": "SCALAR"
    },
    {
      "bufferView": 2,
      "byteOffset": 4718304,
      "componentType": 5126,
      "count": 65532,
      "max": [
        0.48042768239974976,
        0.14833161234855652,
        -0.38876965641975403
      ],
      "min": [
        0.03559829294681549,
        0.02856954000890255,
        -0.9325714707374573
      ],
      "type": "VEC3"
    },
    {
      "bufferView": 2,
      "byteOffset": 5504688,
      "componentType": 5126,
      "count": 65532,
      "max": [
        0.9999094605445862,
        1.0,
        0.9977477788925171
      ],
      "min": [
        -0.9999651908874512,
        -0.9999273419380188,
        -0.998132586479187
      ],
      "type": "VEC3"
    },
    {
      "bufferView": 1,
      "byteOffset": 1572768,
      "componentType": 5126,
      "count": 65532,
      "max": [
        0.9774221181869507,
        0.9998764991760254
      ],
      "min": [
        0.007109117694199085,
        0.004133743699640036
      ],
      "type": "VEC2"
    },
    {
      "bufferView": 0,
      "byteOffset": 4182396,
      "componentType": 5125,
      "count": 354366,
      "type": "SCALAR"
    },
    {
      "bufferView": 2,
      "byteOffset": 6291072,
      "componentType": 5126,
      "count": 65532,
      "max": [
        0.45706555247306824,
        0.14577579498291016,
        -0.3980681002140045
      ],
      "min": [
        -0.10734426975250244,
        -0.0003848578780889511,
        -1.4682879447937012
      ],
      "type": "VEC3"
    },
    {
      "bufferView": 2,
      "byteOffset": 7077456,
      "componentType": 5126,
      "count": 65532,
      "max": [
        0.9995830059051514,
        1.0,
        0.9997889995574951
      ],
      "min": [
        -0.9998356103897095,
        -0.9999995827674866,
        -0.9956875443458557
      ],
      "type": "VEC3"
    },
    {
      "bufferView": 1,
      "byteOffset": 2097024,
      "componentType": 5126,
      "count": 65532,
      "max": [
        0.9441834092140198,
        0.9994643330574036
      ],
      "min": [
        0.025883831083774567,
        0.010974165052175522
      ],
      "type": "VEC2"
    },
    {
      "bufferView": 0,
      "byteOffset": 5599860,
      "componentType": 5125,
      "count": 332427,
      "type": "SCALAR"
    },
    {
      "bufferView": 2,
      "byteOffset": 7863840,
      "componentType": 5126,
      "count": 65532,
      "max": [
        0.49366310238838196,
        0.15981341898441315,
        -0.17934483289718628
      ],
      "min": [
        -0.1687401533126831,
        0.0005674306303262711,
        -1.4693406820297241
      ],
      "type": "VEC3"
    },
    {
      "bufferView": 2,
      "byteOffset": 8650224,
      "componentType": 5126,
      "count": 65532,
      "max": [
        0.9998975396156311,
        0.9999995827674866,
        0.9969184994697571
      ],
      "min": [
        -0.9998924732208252,
        -0.9999995827674866,
        -0.9987139701843262
      ],
      "type": "VEC3"
    },
    {
      "bufferView": 1,
      "byteOffset": 2621280,
      "componentType": 5126,
      "count": 65532,
      "max": [
        0.9251425266265869,
        0.9995782971382141
      ],
      "min": [
        0.0015152120031416416,
        0.003314408240839839
      ],
      "type": "VEC2"
    },
    {
      "bufferView": 0,
      "byteOffset": 6929568,
      "componentType": 5125,
      "count": 308319,
      "type": "SCALAR"
    },
    {
      "bufferView": 2,
      "byteOffset": 9436608,
      "componentType": 5126,
      "count": 65532,
      "max": [
        0.5566654205322266,
        0.1564522236585617,
        0.2026371955871582
      ],
      "min": [
        -0.04914255067706108,
        0.022334745153784752,
        -1.0161856412887573
      ],
      "type": "VEC3"
    },
    {
      "bufferView": 2,
      "byteOffset": 10222992,
      "componentType": 5126,
      "count": 65532,
      "max": [
        0.9998844265937805,
        0.9999964237213135,
        0.9957607388496399
      ],
      "min": [
        -0.9998924732208252,
        -0.9999997615814209,
        -0.999593198299408
      ],
      "type": "VEC3"
    },
    {
      "bufferView": 1,
      "byteOffset": 3145536,
      "componentType": 5126,
      "count": 65532,
      "max": [
        0.9958310127258301,
        0.9999672174453735
      ],
      "min": [
        0.002033141441643238,
        9.024149039760232e-05
      ],
      "type": "VEC2"
    },
    {
      "bufferView": 0,
      "byteOffset": 8162844,
      "componentType": 5125,
      "count": 352707,
      "type": "SCALAR"
    },
    {
      "bufferView": 2,
      "byteOffset": 11009376,
      "componentType": 5126,
      "count": 65532,
      "max": [
        0.5725277066230774,
        0.16852809488773346,
        1.1078426837921143
      ],
      "min": [
        -0.284172385931015,
        0.010402631014585495,
        -1.0754457712173462
      ],
      "type": "VEC3"
    },
    {
      "bufferView": 2,
      "byteOffset": 11795760,
      "componentType": 5126,
      "count": 65532,
      "max": [
        0.9999774098396301,
        0.9999988079071045,
        0.9999973177909851
      ],
      "min": [
        -0.9999468922615051,
        -0.9999986290931702,
        -0.9942240715026855
      ],
      "type": "VEC3"
    },
    {
      "bufferView": 1,
      "byteOffset": 3669792,
      "componentType": 5126,
      "count": 65532,
      "max": [
        0.998451828956604,
        0.9973744750022888
      ],
      "min": [
        0.0074697076342999935,
        0.00596547732129693
      ],
      "type": "VEC2"
    },
    {
      "bufferView": 0,
      "byteOffset": 9573672,
      "componentType": 5125,
      "count": 352704,
      "type": "SCALAR"
    },
    {
      "bufferView": 2,
      "byteOffset": 12582144,
      "componentType": 5126,
      "count": 65532,
      "max": [
        0.5455116629600525,
        0.14953924715518951,
        1.14568293094635
      ],
      "min": [
        -0.2883560061454773,
        0.017317146062850952,
        -1.4730772972106934
      ],
      "type": "VEC3"
    },
    {
      "bufferView": 2,
      "byteOffset": 13368528,
      "componentType": 5126,
      "count": 65532,
      "max": [
        0.9998987913131714,
        0.9999998211860657,
        0.9981147646903992
      ],
      "min": [
        -0.9996954798698425,
        -0.9999986290931702,
        -0.9999896883964539
      ],
      "type": "VEC3"
    },
    {
      "bufferView": 1,
      "byteOffset": 4194048,
      "componentType": 5126,
      "count": 65532,
      "max": [
        0.9961739778518677,
        0.9937901496887207
      ],
      "min": [
        0.01607149839401245,
        0.0016881042392924428
      ],
      "type": "VEC2"
    },
    {
      "bufferView": 0,
      "byteOffset": 10984488,
      "componentType": 5125,
      "count": 343719,
      "type": "SCALAR"
    },
    {
      "bufferView": 2,
      "byteOffset": 14154912,
      "componentType": 5126,
      "count": 65532,
      "max": [
        0.4930289685726166,
        0.1532948613166809,
        1.1171125173568726
      ],
      "min": [
        -0.2622512876987457,
        0.011442070826888084,
        -0.5957102179527283
      ],
      "type": "VEC3"
    },
    {
      "bufferView": 2,
      "byteOffset": 14941296,
      "componentType": 5126,
      "count": 65532,
      "max": [
        0.9999716281890869,
        0.9999995827674866,
        0.9992135167121887
      ],
      "min": [
        -0.9999468922615051,
        -0.9999997615814209,
        -0.9987789988517761
      ],
      "type": "VEC3"
    },
    {
      "bufferView": 1,
      "byteOffset": 4718304,
      "componentType": 5126,
      "count": 65532,
      "max": [
        0.9974722266197205,
        0.9937871694564819
      ],
      "min": [
        0.009426651522517204,
        0.0004963327664881945
      ],
      "type": "VEC2"
    },
    {
      "bufferView": 0,
      "byteOffset": 12359364,
      "componentType": 5125,
      "count": 316965,
      "type": "SCALAR"
    },
    {
      "bufferView": 2,
      "byteOffset": 15727680,
      "componentType": 5126,
      "count": 65532,
      "max": [
        1.3900561332702637,
        1.3386614322662354,
        1.407497763633728
      ],
      "min": [
        -1.4722133874893188,
        -1.3245679140090942,
        -0.17748166620731354
      ],
      "type": "VEC3"
    },
    {
      "bufferView": 2,
      "byteOffset": 16514064,
      "componentType": 5126,
      "count": 65532,
      "max": [
        0.9998213648796082,
        0.9999997615814209,
        0.9994838237762451
      ],
      "min": [
        -0.9999722242355347,
        -0.9999998807907104,
        -0.9999999403953552
      ],
      "type": "VEC3"
    },
    {
      "bufferView": 1,
      "byteOffset": 5242560,
      "componentType": 5126,
      "count": 65532,
      "max": [
        0.9979667663574219,
        0.9963289499282837
      ],
      "min": [
        0.00710359076038003,
        0.0061767869628965855
      ],
      "type": "VEC2"
    },
    {
      "bufferView": 0,
      "byteOffset": 13627224,
      "componentType": 5125,
      "count": 348600,
      "type": "SCALAR"
    },
    {
      "bufferView": 2,
      "byteOffset": 17300448,
      "componentType": 5126,
      "count": 65532,
      "max": [
        1.1060458421707153,
        1.4619758129119873,
        1.3486114740371704
      ],
      "min": [
        -1.4687689542770386,
        -1.3235489130020142,
        -1.469503402709961
      ],
      "type": "VEC3"
    },
    {
      "bufferView": 2,
      "byteOffset": 18086832,
      "componentType": 5126,
      "count": 65532,
      "max": [
        0.9999716281890869,
        0.999999463558197,
        0.9999990463256836
      ],
      "min": [
        -0.999946117401123,
        -0.9999995827674866,
        -0.9999985694885254
      ],
      "type": "VEC3"
    },
    {
      "bufferView": 1,
      "byteOffset": 5766816,
      "componentType": 5126,
      "count": 65532,
      "max": [
        0.9983392953872681,
        0.9994442462921143
      ],
      "min": [
        0.00121679762378335,
        0.0015070291701704264
      ],
      "type": "VEC2"
    },
    {
      "bufferView": 0,
      "byteOffset": 15021624,
      "componentType": 5125,
      "count": 295479,
      "type": "SCALAR"
    },
    {
      "bufferView": 2,
      "byteOffset": 18873216,
      "componentType": 5126,
      "count": 65532,
      "max": [
        0.5607270002365112,
        0.15859681367874146,
        -0.06456515938043594
      ],
      "min": [
        -0.09350775927305222,
        0.009252204559743404,
        -1.4057707786560059
      ],
      "type": "VEC3"
    },
    {
      "bufferView": 2,
      "byteOffset": 19659600,
      "componentType": 5126,
      "count": 65532,
      "max": [
        0.9999193549156189,
        0.9999992847442627,
        0.9997396469116211
      ],
      "min": [
        -0.99983149766922,
        -0.9999959468841553,
        -0.999017059803009
      ],
      "type": "VEC3"
    },
    {
      "bufferView": 1,
      "byteOffset": 6291072,
      "componentType": 5126,
      "count": 65532,
      "max": [
        0.9964768290519714,
        0.9880818724632263
      ],
      "min": [
        0.002172744832932949,
        2.0139032130828127e-05
      ],
      "type": "VEC2"
    },
    {
      "bufferView": 0,
      "byteOffset": 16203540,
      "componentType": 5125,
      "count": 288672,
      "type": "SCALAR"
    },
    {
      "bufferView": 2,
      "byteOffset": 20445984,
      "componentType": 5126,
      "count": 49704,
      "max": [
        0.579131007194519,
        0.16612403094768524,
        0.24953524768352509
      ],
      "min": [
        -0.0992230549454689,
        0.007249793503433466,
        -1.359468698501587
      ],
      "type": "VEC3"
    },
    {
      "bufferView": 2,
      "byteOffset": 21042432,
      "componentType": 5126,
      "count": 49704,
      "max": [
        0.9999465346336365,
        0.9999985694885254,
        0.9975457787513733
      ],
      "min": [
        -0.9999424815177917,
        -0.9999984502792358,
        -0.9996564984321594
      ],
      "type": "VEC3"
    },
    {
      "bufferView": 1,
      "byteOffset": 6815328,
      "componentType": 5126,
      "count": 49704,
      "max": [
        0.9962474703788757,
        0.9998347759246826
      ],
      "min": [
        0.005494729615747929,
        0.00012008543853880838
      ],
      "type": "VEC2"
    },
    {
      "bufferView": 0,
      "byteOffset": 17358228,
      "componentType": 5125,
      "count": 200382,
      "type": "SCALAR"
    }
  ],
  "asset": {
    "extras": {
      "author": "yelizegi (https://sketchfab.com/yelizegi)",
      "license": "CC-BY-4.0 (http://creativecommons.org/licenses/by/4.0/)",
      "source": "https://sketchfab.com/3d-models/tabla-bakarrik-f0a540d8e8a94b5bacf8446b14d1a3c7",
      "title": "tabla bakarrik"
    },
    "generator": "Sketchfab-14.91.0",
    "version": "2.0"
  },
  "bufferViews": [
    {
      "buffer": 0,
      "byteLength": 18159756,
      "name": "floatBufferViews",
      "target": 34963
    },
    {
      "buffer": 0,
      "byteLength": 7212960,
      "byteOffset": 18159756,
      "byteStride": 8,
      "name": "floatBufferViews",
      "target": 34962
    },
    {
      "buffer": 0,
      "byteLength": 21638880,
      "byteOffset": 25372716,
      "byteStride": 12,
      "name": "floatBufferViews",
      "target": 34962
    }
  ],
  "buffers": [
    {
      "byteLength": 47011596,
      "uri": "scene.bin"
    }
  ],
  "extensionsUsed": [
    "KHR_materials_specular"
  ],
  "images": [
    {
      "uri": "textures/material0_baseColor.jpeg"
    }
  ],
  "materials": [
    {
      "doubleSided": true,
      "extensions": {
        "KHR_materials_specular": {
          "specularColorFactor": [
            1.0,
            1.0,
            1.0
          ],
          "specularFactor": 0.0
        }
      },
      "name": "material0",
      "pbrMetallicRoughness": {
        "baseColorTexture": {
          "index": 0
        },
        "metallicFactor": 0.0
      }
    }
  ],
  "meshes": [
    {
      "name": "Model_material0_0",
      "primitives": [
        {
          "attributes": {
            "NORMAL": 1,
            "POSITION": 0,
            "TEXCOORD_0": 2
          },
          "indices": 3,
          "material": 0,
          "mode": 4
        }
      ]
    },
    {
      "name": "Model_material0_0",
      "primitives": [
        {
          "attributes": {
            "NORMAL": 5,
            "POSITION": 4,
            "TEXCOORD_0": 6
          },
          "indices": 7,
          "material": 0,
          "mode": 4
        }
      ]
    },
    {
      "name": "Model_material0_0",
      "primitives": [
        {
          "attributes": {
            "NORMAL": 9,
            "POSITION": 8,
            "TEXCOORD_0": 10
          },
          "indices": 11,
          "material": 0,
          "mode": 4
        }
      ]
    },
    {
      "name": "Model_material0_0",
      "primitives": [
        {
          "attributes": {
            "NORMAL": 13,
            "POSITION": 12,
            "TEXCOORD_0": 14
          },
          "indices": 15,
          "material": 0,
          "mode": 4
        }
      ]
    },
    {
      "name": "Model_material0_0",
      "primitives": [
        {
          "attributes": {
            "NORMAL": 17,
            "POSITION": 16,
            "TEXCOORD_0": 18
          },
          "indices": 19,
          "material": 0,
          "mode": 4
        }
      ]
    },
    {
      "name": "Model_material0_0",
      "primitives": [
        {
          "attributes": {
            "NORMAL": 21,
            "POSITION": 20,
            "TEXCOORD_0": 22
          },
          "indices": 23,
          "material": 0,
          "mode": 4
        }
      ]
    },
    {
      "name": "Model_material0_0",
      "primitives": [
        {
          "attributes": {
            "NORMAL": 25,
            "POSITION": 24,
            "TEXCOORD_0": 26
          },
          "indices": 27,
          "material": 0,
          "mode": 4
        }
      ]
    },
    {
      "name": "Model_material0_0",
      "primitives": [
        {
          "attributes": {
            "NORMAL": 29,
            "POSITION": 28,
            "TEXCOORD_0": 30
          },
          "indices": 31,
          "material": 0,
          "mode": 4
        }
      ]
    },
    {
      "name": "Model_material0_0",
      "primitives": [
        {
          "attributes": {
            "NORMAL": 33,
            "POSITION": 32,
            "TEXCOORD_0": 34
          },
          "indices": 35,
          "material": 0,
          "mode": 4
        }
      ]
    },
    {
      "name": "Model_material0_0",
      "primitives": [
        {
          "attributes": {
            "NORMAL": 37,
            "POSITION": 36,
            "TEXCOORD_0": 38
          },
          "indices": 39,
          "material": 0,
          "mode": 4
        }
      ]
    },
    {
      "name": "Model_material0_0",
      "primitives": [
        {
          "attributes": {
            "NORMAL": 41,
            "POSITION": 40,
            "TEXCOORD_0": 42
          },
          "indices": 43,
          "material": 0,
          "mode": 4
        }
      ]
    },
    {
      "name": "Model_material0_0",
      "primitives": [
        {
          "attributes": {
            "NORMAL": 45,
            "POSITION": 44,
            "TEXCOORD_0": 46
          },
          "indices": 47,
          "material": 0,
          "mode": 4
        }
      ]
    },
    {
      "name": "Model_material0_0",
      "primitives": [
        {
          "attributes": {
            "NORMAL": 49,
            "POSITION": 48,
            "TEXCOORD_0": 50
          },
          "indices": 51,
          "material": 0,
          "mode": 4
        }
      ]
    },
    {
      "name": "Model_material0_0",
      "primitives": [
        {
          "attributes": {
            "NORMAL": 53,
            "POSITION": 52,
            "TEXCOORD_0": 54
          },
          "indices": 55,
          "material": 0,
          "mode": 4
        }
      ]
    }
  ],
  "nodes": [
    {
      "children": [
        1
      ],
      "matrix": [
        0.43492889404296875,
        0.0,
        0.0,
        0.0,
        0.0,
        9.65736144482518e-17,
        -0.43492889404296875,
        0.0,
        0.0,
        0.43492889404296875,
        9.65736144482518e-17,
        0.0,
        0.0,
        0.0,
        0.0,
        1.0
      ],
      "name": "Sketchfab_model"
    },
    {
      "children": [
        2
      ],
      "matrix": [
        1.0,
        0.0,
        0.0,
        0.0,
        0.0,
        -1.0,
        0.0,
        0.0,
        0.0,
        0.0,
        -1.0,
        0.0,
        0.0,
        0.0,
        0.0,
        1.0
      ],
      "name": "model.fbx"
    },
    {
      "children": [
        3
      ],
      "name": "RootNode"
    },
    {
      "children": [
        4,
        5,
        6,
        7,
        8,
        9,
        10,
        11,
        12,
        13,
        14,
        15,
        16,
        17
      ],
      "name": "Model"
    },
    {
      "mesh": 0,
      "name": "Model_material0_0"
    },
    {
      "mesh": 1,
      "name": "Model_material0_0"
    },
    {
      "mesh": 2,
      "name": "Model_material0_0"
    },
    {
      "mesh": 3,
      "name": "Model_material0_0"
    },
    {
      "mesh": 4,
      "name": "Model_material0_0"
    },
    {
      "mesh": 5,
      "name": "Model_material0_0"
    },
    {
      "mesh": 6,
      "name": "Model_material0_0"
    },
    {
      "mesh": 7,
      "name": "Model_material0_0"
    },
    {
      "mesh": 8,
      "name": "Model_material0_0"
    },
    {
      "mesh": 9,
      "name": "Model_material0_0"
    },
    {
      "mesh": 10,
      "name": "Model_material0_0"
    },
    {
      "mesh": 11,
      "name": "Model_material0_0"
    },
    {
      "mesh": 12,
      "name": "Model_material0_0"
    },
    {
      "mesh": 13,
      "name": "Model_material0_0"
    }
  ],
  "samplers": [
    {
      "magFilter": 9729,
      "minFilter": 9987,
      "wrapS": 10497,
      "wrapT": 10497
    }
  ],
  "scene": 0,
  "scenes": [
    {
      "name": "Sketchfab_Scene",
      "nodes": [
        0
      ]
    }
  ],
  "textures": [
    {
      "sampler": 0,
      "source": 0
    }
  ]
}
