<svg xmlns="http://www.w3.org/2000/svg" version="1.1" xmlns:xlink="http://www.w3.org/1999/xlink" xmlns:svgjs="http://svgjs.dev/svgjs" width="2000" height="1247" viewBox="0 0 2000 1247"><g transform="matrix(1,0,0,1,-1.2121212121212466,0.504858299595071)"><svg viewBox="0 0 396 247" data-background-color="#ffffff" preserveAspectRatio="xMidYMid meet" height="1247" width="2000" xmlns="http://www.w3.org/2000/svg" xmlns:xlink="http://www.w3.org/1999/xlink"><g id="tight-bounds" transform="matrix(1,0,0,1,0.2400000000000091,-0.09999999999999432)"><svg viewBox="0 0 395.52 247.2" height="247.2" width="395.52"><g><svg></svg></g><g><svg viewBox="0 0 395.52 247.2" height="247.2" width="395.52"><g transform="matrix(1,0,0,1,88.01190618721093,47.215199999999996)"><svg viewBox="0 0 219.49618762557813 152.7696" height="152.7696" width="219.49618762557813"><g><svg viewBox="0 0 455.0155969478235 316.69138080000005" height="152.7696" width="219.49618762557813"><g transform="matrix(1,0,0,1,226.0800645696,81.96089040000003)"><svg viewBox="0 0 228.9355323782235 152.7696" height="152.7696" width="228.9355323782235"><g id="textblocktransform"><svg viewBox="0 0 228.9355323782235 152.7696" height="152.7696" width="228.9355323782235" id="textblock"><g><svg viewBox="0 0 228.9355323782235 152.7696" height="152.7696" width="228.9355323782235"><g transform="matrix(1,0,0,1,0,0)"><svg width="228.9355323782235" viewBox="1.15 -34.9 52.300000000000004 34.9" height="152.7696" data-palette-color="#b19dd0"><g class="undefined-text-0" data-fill-palette-color="primary" id="text-0"><path d="M24.95-30.25L15.7-30.25 15.7 0 10.4 0 10.4-30.25 1.15-30.25 1.15-34.9 24.95-34.9 24.95-30.25ZM29.9 0L29.9-34.9 44.05-34.9Q48.1-34.9 50.2-32.6 52.3-30.3 52.3-25.9L52.3-25.9Q52.3-22.55 50.85-20.65 49.4-18.75 46.7-18.5L46.7-18.5 46.7-17.9Q48.2-17.9 49.42-17.32 50.65-16.75 51.55-15.7 52.45-14.65 52.95-13.2 53.45-11.75 53.45-10.05L53.45-10.05Q53.45-7.8 52.87-5.95 52.3-4.1 51.25-2.78 50.2-1.45 48.72-0.73 47.25 0 45.45 0L45.45 0 29.9 0ZM35.2-15.55L35.2-4.65 43.9-4.65Q45.8-4.65 46.8-5.68 47.8-6.7 47.8-8.95L47.8-8.95 47.8-11.25Q47.8-13.5 46.8-14.53 45.8-15.55 43.9-15.55L43.9-15.55 35.2-15.55ZM35.2-30.25L35.2-20.1 43.05-20.1Q44.8-20.1 45.75-21.03 46.7-21.95 46.7-24.05L46.7-24.05 46.7-26.3Q46.7-28.4 45.75-29.33 44.8-30.25 43.05-30.25L43.05-30.25 35.2-30.25Z" fill="#b19dd0" data-fill-palette-color="primary"></path></g></svg></g></svg></g></svg></g></svg></g><g><svg viewBox="0 0 190.01482848 316.69138080000005" height="316.69138080000005" width="190.01482848"><g><svg xmlns="http://www.w3.org/2000/svg" xmlns:xlink="http://www.w3.org/1999/xlink" version="1.1" x="0" y="0" viewBox="14 2 36 60" style="enable-background:new 0 0 64 64;" xml:space="preserve" height="316.69138080000005" width="190.01482848" class="icon-icon-0" data-fill-palette-color="accent" id="icon-0"><path d="M45 36h-3v-4H14v25c0 2.8 2.2 5 5 5h18c2.8 0 5-2.2 5-5v-3h3c2.8 0 5-2.2 5-5v-8C50 38.2 47.8 36 45 36zM23.9 54.5l-1.7 1L17.8 48l4.3-7.5 1.7 1L20.2 48 23.9 54.5zM27 55.3L25 54.7l4-14 1.9 0.5L27 55.3zM33.9 55.5l-1.7-1 3.7-6.5-3.7-6.5 1.7-1 4.3 7.5L33.9 55.5zM48 49c0 1.7-1.3 3-3 3h-3V38h3c1.7 0 3 1.3 3 3V49z" fill="#b19dd0" data-fill-palette-color="accent"></path><g fill="#b19dd0" data-fill-palette-color="accent"><path d="M38 30h-2v-2c0-1.1-0.9-2-2-2H20c-2.2 0-4-1.8-4-4s1.8-4 4-4h14c1.1 0 2-0.9 2-2s-0.9-2-2-2H20c-2.2 0-4-1.8-4-4s1.8-4 4-4h14c1.1 0 2-0.9 2-2V2h2v2c0 2.2-1.8 4-4 4H20c-1.1 0-2 0.9-2 2s0.9 2 2 2h14c2.2 0 4 1.8 4 4s-1.8 4-4 4H20c-1.1 0-2 0.9-2 2s0.9 2 2 2h14c2.2 0 4 1.8 4 4V30z" fill="#b19dd0" data-fill-palette-color="accent"></path></g></svg></g></svg></g></svg></g></svg></g><g><path d="M0 123.6c0-68.262 55.338-123.6 123.6-123.6 35.294 0 67.132 14.793 89.654 38.516l-4.64 0c-21.763-21.745-51.818-35.193-85.014-35.193-66.427 0-120.277 53.85-120.277 120.277 0 66.427 53.85 120.277 120.277 120.277 33.196 0 63.251-13.448 85.014-35.193l4.64 0c-22.522 23.724-54.36 38.516-89.654 38.516-68.262 0-123.6-55.338-123.6-123.6z" fill="#b19dd0" stroke="transparent" data-fill-palette-color="tertiary"></path></g></svg></g><defs></defs></svg><rect width="395.52" height="247.2" fill="none" stroke="none" visibility="hidden"></rect></g></svg></g></svg>