<svg xmlns="http://www.w3.org/2000/svg" version="1.1" xmlns:xlink="http://www.w3.org/1999/xlink" xmlns:svgjs="http://svgjs.dev/svgjs" width="2000" height="1335" viewBox="0 0 2000 1335"><g transform="matrix(1,0,0,1,1.204987222179284,0.5404858299594935)"><svg viewBox="0 0 370 247" data-background-color="#ffffff" preserveAspectRatio="xMidYMid meet" height="1335" width="2000" xmlns="http://www.w3.org/2000/svg" xmlns:xlink="http://www.w3.org/1999/xlink"><g id="tight-bounds" transform="matrix(1,0,0,1,-0.22292263610316354,-0.09999999999999432)"><svg viewBox="0 0 370.4458452722063 247.2" height="247.2" width="370.4458452722063"><g><svg viewBox="0 0 370.4458452722063 247.2" height="247.2" width="370.4458452722063"><g><svg viewBox="0 0 370.4458452722063 247.2" height="247.2" width="370.4458452722063"><g id="textblocktransform"><svg viewBox="0 0 370.4458452722063 247.2" height="247.2" width="370.4458452722063" id="textblock"><g><svg viewBox="0 0 370.4458452722063 247.2" height="247.2" width="370.4458452722063"><g transform="matrix(1,0,0,1,0,0)"><svg width="370.4458452722063" viewBox="1.15 -34.9 52.300000000000004 34.9" height="247.2" data-palette-color="#b19dd0"><path d="M24.95-30.25L15.7-30.25 15.7 0 10.4 0 10.4-30.25 1.15-30.25 1.15-34.9 24.95-34.9 24.95-30.25ZM29.9 0L29.9-34.9 44.05-34.9Q48.1-34.9 50.2-32.6 52.3-30.3 52.3-25.9L52.3-25.9Q52.3-22.55 50.85-20.65 49.4-18.75 46.7-18.5L46.7-18.5 46.7-17.9Q48.2-17.9 49.42-17.32 50.65-16.75 51.55-15.7 52.45-14.65 52.95-13.2 53.45-11.75 53.45-10.05L53.45-10.05Q53.45-7.8 52.87-5.95 52.3-4.1 51.25-2.78 50.2-1.45 48.72-0.73 47.25 0 45.45 0L45.45 0 29.9 0ZM35.2-15.55L35.2-4.65 43.9-4.65Q45.8-4.65 46.8-5.68 47.8-6.7 47.8-8.95L47.8-8.95 47.8-11.25Q47.8-13.5 46.8-14.53 45.8-15.55 43.9-15.55L43.9-15.55 35.2-15.55ZM35.2-30.25L35.2-20.1 43.05-20.1Q44.8-20.1 45.75-21.03 46.7-21.95 46.7-24.05L46.7-24.05 46.7-26.3Q46.7-28.4 45.75-29.33 44.8-30.25 43.05-30.25L43.05-30.25 35.2-30.25Z" opacity="1" transform="matrix(1,0,0,1,0,0)" fill="#b19dd0" class="undefined-text-0" data-fill-palette-color="primary" id="text-0"></path></svg></g></svg></g></svg></g></svg></g></svg></g><defs></defs></svg><rect width="370.4458452722063" height="247.2" fill="none" stroke="none" visibility="hidden"></rect></g></svg></g></svg>